<svg xmlns="http://www.w3.org/2000/svg" viewBox="0 0 620 760" role="img" aria-labelledby="title desc">
  <title id="title">HailuoAI Outfit Change</title>
  <desc id="desc">Comparaison schématique d'une tenue avant et après transformation.</desc>
  <rect width="620" height="760" fill="#f1ece2"/>
  <rect x="42" y="52" width="536" height="656" fill="#fffaf2" stroke="#171615" stroke-width="2"/>
  <path d="M310 92v556" stroke="#d8d0c3" stroke-width="2"/>
  <g transform="translate(98 146)">
    <text x="0" y="0" font-family="Inter, Arial" font-size="18" font-weight="800" fill="#171615">Avant</text>
    <circle cx="102" cy="78" r="34" fill="#d0a26a" stroke="#171615" stroke-width="2"/>
    <path d="M102 120c44 0 72 42 72 112v222H30V232c0-70 28-112 72-112z" fill="#171615"/>
    <path d="M56 198h92M48 262h108M54 328h96" stroke="#66615a" stroke-width="4"/>
  </g>
  <g transform="translate(374 146)">
    <text x="0" y="0" font-family="Inter, Arial" font-size="18" font-weight="800" fill="#171615">Après</text>
    <circle cx="102" cy="78" r="34" fill="#d0a26a" stroke="#171615" stroke-width="2"/>
    <path d="M102 120c44 0 72 42 72 112v222H30V232c0-70 28-112 72-112z" fill="#0e7c66"/>
    <path d="M48 188l54 70 54-70M74 288h56M64 348h76" stroke="#fffaf2" stroke-width="5"/>
  </g>
  <path d="M244 408h116" stroke="#d95d39" stroke-width="10"/>
  <path d="M360 408l-26-20v40z" fill="#d95d39"/>
  <text x="72" y="668" font-family="Inter, Arial" font-size="18" font-weight="800" fill="#171615">Même visage · même pose · tenue modifiée</text>
</svg>
