<svg xmlns="http://www.w3.org/2000/svg" viewBox="0 0 960 620" role="img" aria-labelledby="title desc">
  <title id="title">AI shot list board</title>
  <desc id="desc">Abstract shot list with cinematic frames, continuity markers and production fields.</desc>
  <defs>
    <linearGradient id="bg" x1="0" y1="0" x2="1" y2="1">
      <stop stop-color="#111426"/>
      <stop offset="1" stop-color="#10252c"/>
    </linearGradient>
    <linearGradient id="line" x1="0" y1="0" x2="1" y2="0">
      <stop stop-color="#8a3ffc"/>
      <stop offset="1" stop-color="#30c6d8"/>
    </linearGradient>
  </defs>
  <rect width="960" height="620" rx="28" fill="url(#bg)"/>
  <rect x="48" y="48" width="864" height="524" rx="20" fill="#ffffff" fill-opacity=".04" stroke="#ffffff" stroke-opacity=".12"/>
  <g fill="#ffffff" fill-opacity=".06" stroke="#ffffff" stroke-opacity=".1">
    <rect x="72" y="88" width="226" height="122" rx="12"/>
    <rect x="72" y="232" width="226" height="122" rx="12"/>
    <rect x="72" y="376" width="226" height="122" rx="12"/>
  </g>
  <g stroke="url(#line)" stroke-width="4" fill="none">
    <path d="M92 187l58-53 48 34 42-55 38 74"/>
    <path d="M92 331l70-62 42 44 74-70"/>
    <path d="M92 475l58-34 42 16 86-66"/>
  </g>
  <g fill="#ffffff" fill-opacity=".1">
    <rect x="330" y="88" width="530" height="18" rx="9"/>
    <rect x="330" y="120" width="420" height="12" rx="6"/>
    <rect x="330" y="154" width="480" height="12" rx="6"/>
    <rect x="330" y="184" width="350" height="12" rx="6"/>
    <rect x="330" y="232" width="530" height="18" rx="9"/>
    <rect x="330" y="264" width="390" height="12" rx="6"/>
    <rect x="330" y="298" width="500" height="12" rx="6"/>
    <rect x="330" y="328" width="320" height="12" rx="6"/>
    <rect x="330" y="376" width="530" height="18" rx="9"/>
    <rect x="330" y="408" width="450" height="12" rx="6"/>
    <rect x="330" y="442" width="510" height="12" rx="6"/>
    <rect x="330" y="472" width="370" height="12" rx="6"/>
  </g>
  <g fill="#35c7d8">
    <circle cx="834" cy="126" r="10"/><circle cx="834" cy="270" r="10"/><circle cx="834" cy="414" r="10"/>
  </g>
  <path d="M72 534h788" stroke="url(#line)" stroke-width="6" stroke-linecap="round"/>
</svg>
