<svg xmlns="http://www.w3.org/2000/svg" viewBox="0 0 920 620" role="img" aria-labelledby="title desc">
  <title id="title">Pipeline AI filmmaking</title>
  <desc id="desc">Schéma visuel du pipeline idée, références, prompt, image, vidéo et montage.</desc>
  <rect width="920" height="620" fill="#f1ece2"/>
  <rect x="34" y="34" width="852" height="552" fill="#fffaf2" stroke="#171615" stroke-width="2"/>
  <g fill="none" stroke="#d8d0c3" stroke-width="1">
    <path d="M34 136h852M34 238h852M34 340h852M34 442h852"/>
    <path d="M176 34v552M318 34v552M460 34v552M602 34v552M744 34v552"/>
  </g>
  <g font-family="Inter, Arial, sans-serif" fill="#171615">
    <text x="64" y="84" font-size="26" font-weight="800">AI Filmmaking Lab</text>
    <text x="64" y="112" font-size="15" fill="#66615a">idée → références → prompt → image → vidéo → montage</text>
  </g>
  <g transform="translate(64 166)">
    <rect width="118" height="76" fill="#171615"/>
    <circle cx="45" cy="38" r="18" fill="#f6f4ef"/>
    <path d="M70 24l24 14-24 14z" fill="#d95d39"/>
    <text x="0" y="112" font-family="Inter, Arial" font-size="18" font-weight="800" fill="#171615">Brief</text>
    <text x="0" y="136" font-family="Inter, Arial" font-size="13" fill="#66615a">Intention dramatique</text>
  </g>
  <g transform="translate(212 166)">
    <rect width="118" height="76" fill="#e8dccb" stroke="#171615"/>
    <rect x="16" y="14" width="40" height="48" fill="#2e8aa0"/>
    <rect x="62" y="14" width="40" height="48" fill="#c98b24"/>
    <text x="0" y="112" font-family="Inter, Arial" font-size="18" font-weight="800" fill="#171615">Boards</text>
    <text x="0" y="136" font-family="Inter, Arial" font-size="13" fill="#66615a">Style, caméra, perso</text>
  </g>
  <g transform="translate(360 166)">
    <rect width="118" height="76" fill="#fff" stroke="#171615"/>
    <path d="M20 24h78M20 38h58M20 52h70" stroke="#171615" stroke-width="5"/>
    <text x="0" y="112" font-family="Inter, Arial" font-size="18" font-weight="800" fill="#171615">Prompt</text>
    <text x="0" y="136" font-family="Inter, Arial" font-size="13" fill="#66615a">Variables et négatifs</text>
  </g>
  <g transform="translate(508 166)">
    <rect width="118" height="76" fill="#171615"/>
    <rect x="16" y="18" width="86" height="40" fill="#0e7c66"/>
    <circle cx="44" cy="38" r="12" fill="#fffaf2"/>
    <text x="0" y="112" font-family="Inter, Arial" font-size="18" font-weight="800" fill="#171615">Image</text>
    <text x="0" y="136" font-family="Inter, Arial" font-size="13" fill="#66615a">Frame exploitable</text>
  </g>
  <g transform="translate(656 166)">
    <rect width="118" height="76" fill="#171615"/>
    <rect x="12" y="16" width="28" height="44" fill="#6d4b77"/>
    <rect x="45" y="16" width="28" height="44" fill="#d95d39"/>
    <rect x="78" y="16" width="28" height="44" fill="#2e8aa0"/>
    <text x="0" y="112" font-family="Inter, Arial" font-size="18" font-weight="800" fill="#171615">Vidéo</text>
    <text x="0" y="136" font-family="Inter, Arial" font-size="13" fill="#66615a">Mouvement contrôlé</text>
  </g>
  <g transform="translate(168 404)">
    <rect width="584" height="92" fill="#171615"/>
    <g fill="#f6f4ef">
      <rect x="28" y="26" width="82" height="40"/>
      <rect x="126" y="26" width="82" height="40"/>
      <rect x="224" y="26" width="82" height="40"/>
      <rect x="322" y="26" width="82" height="40"/>
      <rect x="420" y="26" width="82" height="40"/>
    </g>
    <path d="M28 74h474" stroke="#d95d39" stroke-width="5"/>
    <text x="0" y="132" font-family="Inter, Arial" font-size="18" font-weight="800" fill="#171615">Production bible</text>
    <text x="0" y="156" font-family="Inter, Arial" font-size="13" fill="#66615a">Résultat, analyse, corrections, réutilisation</text>
  </g>
</svg>
