<svg width="1600" height="960" viewBox="0 0 1600 960" fill="none" xmlns="http://www.w3.org/2000/svg" role="img" aria-labelledby="title desc">
  <title id="title">Board projets cinematographiques</title>
  <desc id="desc">Planche de production avec panneaux, silhouettes et architecture nocturne.</desc>
  <defs>
    <linearGradient id="bg" x1="160" y1="80" x2="1450" y2="860" gradientUnits="userSpaceOnUse">
      <stop stop-color="#101926"/>
      <stop offset="0.5" stop-color="#152030"/>
      <stop offset="1" stop-color="#08111B"/>
    </linearGradient>
    <radialGradient id="pink" cx="0" cy="0" r="1" gradientUnits="userSpaceOnUse" gradientTransform="translate(360 210) rotate(40) scale(320 230)">
      <stop stop-color="#9F6D97" stop-opacity="0.6"/>
      <stop offset="1" stop-color="#9F6D97" stop-opacity="0"/>
    </radialGradient>
    <radialGradient id="cyan" cx="0" cy="0" r="1" gradientUnits="userSpaceOnUse" gradientTransform="translate(1200 250) rotate(120) scale(300 240)">
      <stop stop-color="#6FB3C6" stop-opacity="0.55"/>
      <stop offset="1" stop-color="#6FB3C6" stop-opacity="0"/>
    </radialGradient>
    <linearGradient id="panel" x1="0" y1="0" x2="1" y2="1">
      <stop stop-color="#1B2838"/>
      <stop offset="1" stop-color="#101926"/>
    </linearGradient>
  </defs>
  <rect width="1600" height="960" rx="40" fill="url(#bg)"/>
  <rect width="1600" height="960" rx="40" fill="url(#pink)"/>
  <rect width="1600" height="960" rx="40" fill="url(#cyan)"/>
  <g opacity="0.2" stroke="#E7EDF4">
    <path d="M0 138H1600"/>
    <path d="M0 318H1600"/>
    <path d="M0 498H1600"/>
    <path d="M0 678H1600"/>
    <path d="M0 858H1600"/>
    <path d="M180 0V960"/>
    <path d="M460 0V960"/>
    <path d="M740 0V960"/>
    <path d="M1020 0V960"/>
    <path d="M1300 0V960"/>
  </g>
  <rect x="92" y="86" width="496" height="300" rx="28" fill="url(#panel)" stroke="#2F4358"/>
  <rect x="628" y="86" width="430" height="190" rx="28" fill="url(#panel)" stroke="#2F4358"/>
  <rect x="1088" y="86" width="420" height="386" rx="28" fill="url(#panel)" stroke="#2F4358"/>
  <rect x="92" y="420" width="640" height="448" rx="28" fill="url(#panel)" stroke="#2F4358"/>
  <rect x="766" y="312" width="292" height="556" rx="28" fill="url(#panel)" stroke="#2F4358"/>
  <rect x="1088" y="506" width="420" height="362" rx="28" fill="url(#panel)" stroke="#2F4358"/>

  <rect x="140" y="132" width="400" height="208" rx="22" fill="#223042"/>
  <rect x="140" y="132" width="400" height="208" rx="22" fill="url(#cyan)" opacity="0.35"/>
  <path d="M172 296L278 196L346 250L468 164L516 190" stroke="#E9F0F6" stroke-width="10" stroke-linecap="round" stroke-linejoin="round" opacity="0.85"/>
  <circle cx="468" cy="164" r="12" fill="#D56A70"/>

  <path d="M1176 410C1196 302 1258 184 1336 130C1416 184 1454 280 1460 410" stroke="#87D1DD" stroke-width="14" stroke-linecap="round" opacity="0.9"/>
  <path d="M1220 418C1252 340 1288 300 1336 272C1384 300 1416 340 1448 418" stroke="#E6EDF4" stroke-width="8" stroke-linecap="round" opacity="0.65"/>
  <rect x="1180" y="434" width="312" height="12" rx="6" fill="#26384D"/>

  <path d="M272 838C250 772 246 708 262 640C278 572 318 534 382 526C448 518 496 552 526 628C556 704 572 774 574 838" fill="#0A1018"/>
  <path d="M274 838C314 744 398 618 500 544" stroke="#6FB3C6" stroke-width="12" stroke-linecap="round" opacity="0.55"/>
  <path d="M322 838C360 704 416 646 486 664C538 678 562 736 562 838" fill="#141E2B"/>
  <ellipse cx="420" cy="586" rx="76" ry="84" fill="#131A24"/>
  <ellipse cx="420" cy="586" rx="64" ry="72" fill="#E7D6CA" opacity="0.26"/>
  <path d="M370 544C394 514 446 512 470 548" stroke="#202C3D" stroke-width="14" stroke-linecap="round"/>
  <path d="M354 560C384 514 458 510 486 564" stroke="#7D5D89" stroke-width="10" stroke-linecap="round" opacity="0.45"/>

  <rect x="820" y="364" width="184" height="224" rx="20" fill="#223042"/>
  <rect x="840" y="392" width="144" height="22" rx="11" fill="#6FB3C6" opacity="0.65"/>
  <rect x="840" y="436" width="112" height="12" rx="6" fill="#DCE5EE" opacity="0.8"/>
  <rect x="840" y="464" width="132" height="12" rx="6" fill="#DCE5EE" opacity="0.42"/>
  <rect x="840" y="522" width="144" height="40" rx="12" fill="#101926" stroke="#5A7D92"/>

  <rect x="1134" y="552" width="328" height="270" rx="20" fill="#1A2637"/>
  <path d="M1176 778C1210 732 1248 704 1292 694C1344 682 1400 694 1446 738" stroke="#E9F0F6" stroke-width="10" stroke-linecap="round" opacity="0.72"/>
  <path d="M1176 682C1214 648 1260 630 1310 630C1362 630 1408 650 1446 686" stroke="#6FB3C6" stroke-width="8" stroke-linecap="round" opacity="0.6"/>
  <rect x="1176" y="590" width="144" height="18" rx="9" fill="#D56A70" opacity="0.65"/>
  <rect x="1334" y="590" width="112" height="18" rx="9" fill="#87D1DD" opacity="0.65"/>
</svg>