<svg xmlns="http://www.w3.org/2000/svg" viewBox="0 0 960 600" role="img" aria-labelledby="title desc">
  <title id="title">Lyra Voss outfit board</title>
  <desc id="desc">Abstract matte tactical suit, material swatches, boots and access marker.</desc>
  <rect width="960" height="600" rx="24" fill="#121824"/>
  <g fill="#fff" fill-opacity=".04" stroke="#fff" stroke-opacity=".12">
    <rect x="38" y="70" width="390" height="488" rx="18"/>
    <rect x="454" y="70" width="214" height="220" rx="18"/>
    <rect x="692" y="70" width="230" height="220" rx="18"/>
    <rect x="454" y="314" width="468" height="244" rx="18"/>
  </g>
  <g transform="translate(230 95)" fill="#211e2b" stroke="#7e659d" stroke-width="5">
    <ellipse cx="0" cy="45" rx="31" ry="40"/>
    <path d="M-42 90q42-26 84 0l30 196-44 62-10 128h-36l-10-128-44-62z"/>
    <path d="M-43 170h86M-52 258h104M-26 100l18 245M26 100L8 345" fill="none"/>
  </g>
  <g>
    <rect x="486" y="110" width="66" height="66" rx="10" fill="#18171d"/><rect x="568" y="110" width="66" height="66" rx="10" fill="#272532"/>
    <rect x="486" y="194" width="66" height="66" rx="10" fill="#34303d"/><rect x="568" y="194" width="66" height="66" rx="10" fill="#0f151a"/>
    <path d="M742 226h52l20-92h-86z" fill="#201e29" stroke="#8a6cb6" stroke-width="5"/>
    <rect x="760" y="118" width="18" height="110" rx="8" fill="#35c7d8" fill-opacity=".45"/>
  </g>
  <g stroke="#35c7d8" stroke-width="5" fill="none" stroke-linecap="round">
    <rect x="500" y="354" width="172" height="116" rx="20"/><path d="M532 386h108M532 414h76"/>
    <path d="M724 486l24-120h48l28 120M730 486h104"/>
  </g>
  <text x="40" y="42" fill="#a875ff" font-family="Arial, sans-serif" font-size="17" font-weight="700">OUTFIT BOARD / MATTE MATERIALS / NO LED</text>
</svg>
